<svg width="422" height="428" viewBox="0 0 422 428" fill="none" xmlns="http://www.w3.org/2000/svg">
<path d="M403.901 18.4381H17.168V409.289H403.901V18.4381ZM8.57577 0H421.052V427.743H0V0H8.57577Z" fill="#9D0B0F"/>
<path d="M275.264 44.4424L122.941 213.576L280.186 383.4L265.355 383.383L112.341 217.408L108.934 213.658L112.308 209.875L261.734 44.4424H275.264Z" fill="#9D0B0F"/>
<path d="M342.34 44.4087L184.453 213.591L345.911 383.564L336.825 383.498L178.1 215.894L176.042 213.641L178.067 211.371L332.101 44.4251L342.34 44.4087Z" fill="#9D0B0F"/>
<path d="M371.375 44.4416L216.056 213.575L361.449 366.639L359.211 217.078L240.845 217.934L240.812 211.42L362.174 210.565L365.169 210.549L365.219 213.756L367.457 379.353L208.435 217.243L207.48 213.657L209.637 211.338L363.968 44.4087L371.375 44.4416Z" fill="#9D0B0F"/>
<path fill-rule="evenodd" clip-rule="evenodd" d="M244.714 44.5243L83.881 214.283L251.578 383.482L210.065 383.498L47.5039 214.529L206.905 44.5078L244.714 44.5243Z" fill="#9D0B0F"/>
<path d="M308.447 44.4424L154.989 213.592L313.599 383.548H301.402L146.512 216.652L143.779 213.658L146.479 210.615L297.057 44.4753L301.287 44.4424H308.447Z" fill="#9D0B0F"/>
<path d="M214.904 212.359L367.408 46.0378L364.675 46.1201L210.789 212.54L209.307 214.135L209.867 216.306L365.795 375.242L363.605 213.757V212.276H362.19L242.442 213.115V216.142L359.211 215.319H360.807L360.84 217.03L363.079 366.574L360.313 367.84L214.92 214.793L213.768 213.576L214.904 212.326V212.359ZM372.527 45.3964L218.328 213.559L359.754 362.429L357.597 218.839L240.829 219.661H239.216V217.934V211.421L239.183 209.694H240.796L362.157 208.822H365.153L366.749 208.789L366.782 210.516L366.815 213.74L369.054 379.337L369.103 383.466L366.305 380.62L207.283 218.51L206.838 217.721L205.884 214.119L205.637 213.148L206.295 212.424L208.451 210.105L361.63 44.4424H373.498L372.494 45.3964H372.527Z" fill="#9D0B0F"/>
<path d="M120.045 210.549L265.751 48.7843H263.446L115.222 212.868L114.547 213.625L115.205 214.348L267.051 379.041H270.458L120.078 216.635L117.296 213.625L120.061 210.549H120.045ZM278.162 47.4685L128.588 213.543L283.05 380.357L285.964 383.498H259.792L109.477 220.467L109.444 220.434L106.037 216.684L103.305 213.691L106.021 210.648L109.395 206.865H109.411L256.121 44.4585H280.894L278.162 47.4849V47.4685Z" fill="#9D0B0F"/>
<path d="M152.964 211.47L301.748 47.4846H298.259L148.52 212.72L147.714 213.624L148.52 214.513L302.555 380.488H306.736L152.981 215.73L151.006 213.608L152.948 211.453L152.964 211.47ZM310.472 46.5635L158.956 213.559L315.591 381.409L317.402 383.514H297.354L144.504 218.822L141.772 215.812L139.846 213.707L141.739 211.568L144.438 208.542L293.123 44.4746H312.382L310.456 46.5799L310.472 46.5635Z" fill="#9D0B0F"/>
<path d="M183.02 212.063L337.434 46.597H332.924L179.531 212.885L178.856 213.642L179.514 214.365L337.648 381.328L340.907 381.36L183.037 215.155L181.588 213.625L183.037 212.079L183.02 212.063ZM343.754 45.9391L187.317 213.576L347.31 382.002L348.413 383.482H333.961L176.683 217.441L176.65 217.408L174.593 215.155L173.227 213.658L174.576 212.128L176.601 209.859H176.617L329.22 44.4424H345.154L343.738 45.9391H343.754Z" fill="#9D0B0F"/>
</svg>
