<svg width="264" height="73" viewBox="0 0 264 73" fill="none" xmlns="http://www.w3.org/2000/svg">
<path d="M68.436 3.1241H2.9089V69.3489H68.436V3.1241ZM1.45306 0H71.3421V72.4757H0V0H1.45306Z" fill="white"/>
<path d="M46.6397 7.53027L20.8305 36.1878L47.4736 64.9624L44.9607 64.9596L19.0343 36.8372L18.457 36.2017L19.0288 35.5608L44.3471 7.53027H46.6397Z" fill="white"/>
<path d="M58.0052 7.52441L31.2533 36.1903L58.6104 64.99L57.0709 64.9788L30.1767 36.5805L29.8281 36.1987L30.1712 35.8141L56.2704 7.5272L58.0052 7.52441Z" fill="white"/>
<path d="M62.9242 7.52999L36.6074 36.1875L61.2424 62.1223L60.8631 36.7811L40.8076 36.9261L40.802 35.8224L61.3651 35.6775L61.8727 35.6747L61.8811 36.2182L62.2604 64.2765L35.3161 36.809L35.1543 36.2015L35.5197 35.8085L61.6691 7.52441L62.9242 7.52999Z" fill="white"/>
<path fill-rule="evenodd" clip-rule="evenodd" d="M41.4636 7.5438L14.2125 36.3072L42.6266 64.9759L35.5928 64.9787L8.04883 36.349L35.0573 7.54102L41.4636 7.5438Z" fill="white"/>
<path d="M52.2623 7.53027L26.2606 36.1906L53.1352 64.9875H51.0686L24.8243 36.709L24.3613 36.2017L24.8187 35.6862L50.3323 7.53585L51.0491 7.53027H52.2623Z" fill="white"/>
<path d="M36.412 35.9816L62.2519 7.8006L61.7889 7.81453L35.7147 36.0122L35.4637 36.2826L35.5586 36.6504L61.9786 63.5801L61.6076 36.2185V35.9676H61.3678L41.078 36.1098V36.6226L60.863 36.4832H61.1335L61.1391 36.7731L61.5184 62.1114L61.0498 62.326L36.4148 36.394L36.2196 36.1878L36.412 35.976V35.9816ZM63.1193 7.69191L36.9921 36.185L60.955 61.4091L60.5896 37.0796L40.8046 37.219H40.5313V36.9263V35.8227L40.5257 35.5301H40.7991L61.3622 35.3824H61.8698L62.1403 35.3768L62.1459 35.6695L62.1515 36.2157L62.5308 64.274L62.5391 64.9735L62.065 64.4914L35.1207 37.0239L35.0454 36.8901L34.8836 36.2798L34.8418 36.1154L34.9534 35.9927L35.3187 35.5998L61.273 7.53027H63.2838L63.1137 7.69191H63.1193Z" fill="white"/>
<path d="M20.3403 35.6752L45.0283 8.26615H44.6379L19.5231 36.0681L19.4088 36.1963L19.5203 36.3189L45.2487 64.224H45.826L20.3459 36.7063L19.8745 36.1963L20.3431 35.6752H20.3403ZM47.1312 8.0432L21.7878 36.1824L47.9596 64.447L48.4532 64.9793H44.0187L18.5498 37.3557L18.5442 37.3501L17.9669 36.7147L17.5039 36.2075L17.9641 35.6919L18.5358 35.0509H18.5386L43.3968 7.5332H47.5942L47.1312 8.04599V8.0432Z" fill="white"/>
<path d="M25.9181 35.8314L51.1277 8.04613H50.5364L25.1651 36.0432L25.0284 36.1965L25.1651 36.347L51.2644 64.4694H51.9728L25.9209 36.5532L25.5862 36.1937L25.9153 35.8286L25.9181 35.8314ZM52.6059 7.89007L26.9333 36.1853L53.4732 64.6255L53.78 64.9822H50.383L24.4846 37.0771L24.0216 36.5671L23.6953 36.2104L24.016 35.8481L24.4734 35.3353L49.6663 7.53613H52.9294L52.6031 7.89285L52.6059 7.89007Z" fill="white"/>
<path d="M31.011 35.9314L57.1744 7.89535H56.4102L30.4197 36.0708L30.3054 36.199L30.417 36.3216L57.2107 64.6113L57.7629 64.6168L31.0138 36.4554L30.7684 36.1962L31.0138 35.9342L31.011 35.9314ZM58.2454 7.78388L31.7389 36.1878L58.8478 64.7255L59.0347 64.9763H56.5859L29.9372 36.8427L29.9317 36.8372L29.583 36.4554L29.3516 36.2017L29.5803 35.9426L29.9233 35.558H29.9261L55.7827 7.53027H58.4824L58.2426 7.78388H58.2454Z" fill="white"/>
<path d="M102.59 4.80713V10.6421H102.139C101.593 9.04704 100.776 7.83447 99.6851 7.00439C98.5946 6.17432 97.4023 5.75928 96.1084 5.75928C94.8714 5.75928 93.842 6.10921 93.02 6.80908C92.1981 7.50081 91.6162 8.46924 91.2744 9.71436C90.9326 10.9595 90.7617 12.2371 90.7617 13.5474C90.7617 15.1343 90.9489 16.5259 91.3232 17.7222C91.6976 18.9185 92.2998 19.7974 93.1299 20.3589C93.9681 20.9204 94.9609 21.2012 96.1084 21.2012C96.5072 21.2012 96.9141 21.1605 97.3291 21.0791C97.7523 20.9896 98.1836 20.8634 98.623 20.7007V17.2583C98.623 16.6073 98.5783 16.1882 98.4888 16.001C98.3993 15.8057 98.2121 15.6307 97.9272 15.4761C97.6506 15.3215 97.3128 15.2441 96.9141 15.2441H96.4868V14.7925H104.531V15.2441C103.921 15.2848 103.494 15.3703 103.25 15.5005C103.014 15.6226 102.83 15.8301 102.7 16.123C102.627 16.2777 102.59 16.6561 102.59 17.2583V20.7007C101.532 21.1727 100.43 21.5267 99.2822 21.7627C98.1429 22.0068 96.9588 22.1289 95.73 22.1289C94.1593 22.1289 92.8532 21.9173 91.8115 21.4941C90.778 21.0628 89.8625 20.5013 89.0649 19.8096C88.2756 19.1097 87.6571 18.3244 87.2095 17.4536C86.6398 16.3306 86.355 15.0732 86.355 13.6816C86.355 11.1914 87.2298 9.08773 88.9795 7.37061C90.7292 5.65348 92.9305 4.79492 95.5835 4.79492C96.4054 4.79492 97.146 4.86003 97.8052 4.99023C98.1632 5.05534 98.741 5.24251 99.5386 5.55176C100.344 5.85286 100.82 6.00342 100.967 6.00342C101.195 6.00342 101.406 5.92204 101.602 5.75928C101.797 5.58838 101.976 5.271 102.139 4.80713H102.59ZM110.11 5.18555V19.3701C110.11 20.1758 110.203 20.6925 110.391 20.9204C110.578 21.1401 110.944 21.2663 111.489 21.2988V21.7383H105.325V21.2988C105.829 21.2826 106.204 21.1361 106.448 20.8594C106.611 20.6722 106.692 20.1758 106.692 19.3701V7.55371C106.692 6.75618 106.598 6.24756 106.411 6.02783C106.224 5.79997 105.862 5.66976 105.325 5.63721V5.18555H110.11ZM117.983 9.98291C118.976 9.98291 119.9 10.2393 120.754 10.752C121.609 11.2646 122.256 11.993 122.695 12.937C123.143 13.881 123.367 14.9146 123.367 16.0376C123.367 17.6571 122.956 19.012 122.134 20.1025C121.141 21.4209 119.77 22.0801 118.02 22.0801C116.303 22.0801 114.98 21.4779 114.053 20.2734C113.125 19.069 112.661 17.6733 112.661 16.0864C112.661 14.4507 113.133 13.0265 114.077 11.814C115.029 10.5933 116.331 9.98291 117.983 9.98291ZM118.032 10.8496C117.617 10.8496 117.259 11.0083 116.958 11.3257C116.665 11.6349 116.47 12.2534 116.372 13.1812C116.283 14.1007 116.238 15.3825 116.238 17.0264C116.238 17.8971 116.295 18.7109 116.409 19.4678C116.498 20.0456 116.689 20.485 116.982 20.7861C117.275 21.0872 117.609 21.2378 117.983 21.2378C118.35 21.2378 118.655 21.1361 118.899 20.9326C119.216 20.6559 119.428 20.2694 119.534 19.7729C119.696 18.9998 119.778 17.4373 119.778 15.0854C119.778 13.702 119.701 12.7539 119.546 12.2412C119.391 11.7204 119.163 11.342 118.862 11.106C118.651 10.9351 118.374 10.8496 118.032 10.8496ZM129.519 5.18555V11.4722C130.479 10.4793 131.529 9.98291 132.668 9.98291C133.45 9.98291 134.186 10.2148 134.878 10.6787C135.57 11.1344 136.111 11.7855 136.501 12.6318C136.892 13.4782 137.087 14.4548 137.087 15.5615C137.087 16.8066 136.839 17.9378 136.343 18.9551C135.846 19.9723 135.183 20.7495 134.353 21.2866C133.523 21.8156 132.575 22.0801 131.509 22.0801C130.89 22.0801 130.341 21.9824 129.861 21.7871C129.381 21.5918 128.909 21.2744 128.445 20.835L126.553 22.0679H126.138V7.55371C126.138 6.89453 126.109 6.48763 126.052 6.33301C125.971 6.10514 125.841 5.93831 125.662 5.83252C125.491 5.71859 125.198 5.65348 124.783 5.63721V5.18555H129.519ZM129.519 12.5586V17.6367C129.519 18.6702 129.543 19.3294 129.592 19.6143C129.674 20.0944 129.869 20.485 130.178 20.7861C130.487 21.0791 130.882 21.2256 131.362 21.2256C131.777 21.2256 132.131 21.1076 132.424 20.8716C132.725 20.6356 132.974 20.1676 133.169 19.4678C133.372 18.7679 133.474 17.5065 133.474 15.6836C133.474 13.9339 133.254 12.7336 132.815 12.0825C132.498 11.6105 132.07 11.3745 131.533 11.3745C130.833 11.3745 130.162 11.7692 129.519 12.5586ZM145.315 20.0537C143.923 21.2826 142.674 21.897 141.567 21.897C140.916 21.897 140.375 21.6854 139.944 21.2622C139.513 20.8309 139.297 20.2938 139.297 19.6509C139.297 18.7801 139.671 17.9989 140.42 17.3071C141.169 16.6073 142.8 15.6795 145.315 14.5239V13.3765C145.315 12.5138 145.266 11.9727 145.168 11.7529C145.079 11.5251 144.904 11.3298 144.644 11.167C144.383 10.9961 144.09 10.9106 143.765 10.9106C143.236 10.9106 142.8 11.0286 142.458 11.2646C142.247 11.4111 142.141 11.582 142.141 11.7773C142.141 11.9482 142.255 12.1598 142.483 12.4121C142.792 12.762 142.947 13.0998 142.947 13.4253C142.947 13.8241 142.796 14.1659 142.495 14.4507C142.202 14.7274 141.816 14.8657 141.335 14.8657C140.823 14.8657 140.391 14.7111 140.042 14.4019C139.7 14.0926 139.529 13.7305 139.529 13.3154C139.529 12.7295 139.761 12.172 140.225 11.6431C140.688 11.106 141.335 10.695 142.166 10.4102C142.996 10.1253 143.858 9.98291 144.753 9.98291C145.836 9.98291 146.69 10.2148 147.317 10.6787C147.952 11.1344 148.363 11.6309 148.55 12.168C148.664 12.5098 148.721 13.2951 148.721 14.5239V18.9551C148.721 19.4759 148.741 19.8055 148.782 19.9438C148.822 20.0741 148.883 20.1717 148.965 20.2368C149.046 20.3019 149.14 20.3345 149.246 20.3345C149.457 20.3345 149.673 20.1839 149.893 19.8828L150.259 20.1758C149.852 20.778 149.429 21.2174 148.989 21.4941C148.558 21.7627 148.066 21.897 147.512 21.897C146.861 21.897 146.353 21.7464 145.986 21.4453C145.62 21.1361 145.396 20.6722 145.315 20.0537ZM145.315 19.1626V15.3418C144.33 15.9196 143.598 16.5381 143.118 17.1973C142.8 17.6367 142.642 18.0802 142.642 18.5278C142.642 18.9022 142.776 19.2318 143.044 19.5166C143.248 19.7363 143.533 19.8462 143.899 19.8462C144.306 19.8462 144.778 19.6183 145.315 19.1626ZM155.984 5.18555V19.3701C155.984 20.1758 156.077 20.6925 156.265 20.9204C156.452 21.1401 156.818 21.2663 157.363 21.2988V21.7383H151.199V21.2988C151.703 21.2826 152.078 21.1361 152.322 20.8594C152.485 20.6722 152.566 20.1758 152.566 19.3701V7.55371C152.566 6.75618 152.472 6.24756 152.285 6.02783C152.098 5.79997 151.736 5.66976 151.199 5.63721V5.18555H155.984ZM92.0923 37.2432V41.833C92.0923 42.7282 92.1452 43.2938 92.251 43.5298C92.3649 43.7576 92.5602 43.9408 92.8369 44.0791C93.1217 44.2174 93.6385 44.2866 94.3872 44.2866V44.7383H85.9766V44.2866C86.7415 44.2866 87.2583 44.2174 87.5269 44.0791C87.8035 43.9326 87.9948 43.7454 88.1006 43.5176C88.2145 43.2897 88.2715 42.7282 88.2715 41.833V31.0908C88.2715 30.1956 88.2145 29.6341 88.1006 29.4062C87.9948 29.1702 87.8035 28.9831 87.5269 28.8447C87.2502 28.7064 86.7334 28.6372 85.9766 28.6372V28.1855H93.1909C95.5672 28.1855 97.2721 28.6087 98.3057 29.4551C99.3392 30.3014 99.856 31.3594 99.856 32.6289C99.856 33.7031 99.5223 34.6227 98.855 35.3877C98.1877 36.1527 97.2681 36.6735 96.0962 36.9502C95.3068 37.1455 93.9722 37.2432 92.0923 37.2432ZM92.0923 29.1377V36.291C92.3608 36.3073 92.5643 36.3154 92.7026 36.3154C93.6955 36.3154 94.4604 36.0225 94.9976 35.4365C95.5347 34.8424 95.8032 33.9269 95.8032 32.6899C95.8032 31.4611 95.5347 30.5618 94.9976 29.9922C94.4604 29.4225 93.6589 29.1377 92.5928 29.1377H92.0923ZM106.13 28.1855V34.7896C106.757 34.1304 107.331 33.6665 107.852 33.3979C108.372 33.1213 108.914 32.9829 109.475 32.9829C110.191 32.9829 110.802 33.1864 111.306 33.5933C111.819 34.0002 112.157 34.4803 112.319 35.0337C112.49 35.5789 112.576 36.5026 112.576 37.8047V42.2603C112.576 43.131 112.657 43.6763 112.82 43.896C112.983 44.1076 113.312 44.2419 113.809 44.2988V44.7383H108.022V44.2988C108.429 44.2419 108.735 44.0791 108.938 43.8105C109.084 43.599 109.158 43.0822 109.158 42.2603V37.1699C109.158 36.2259 109.121 35.6359 109.048 35.3999C108.975 35.1558 108.848 34.9686 108.669 34.8384C108.499 34.7 108.303 34.6309 108.083 34.6309C107.758 34.6309 107.441 34.7448 107.131 34.9727C106.822 35.1924 106.488 35.583 106.13 36.1445V42.2603C106.13 43.0741 106.191 43.5827 106.313 43.7861C106.468 44.0628 106.785 44.2337 107.266 44.2988V44.7383H101.479V44.2988C101.96 44.25 102.301 44.0954 102.505 43.835C102.643 43.6559 102.712 43.131 102.712 42.2603V30.6636C102.712 29.8009 102.631 29.2638 102.468 29.0522C102.314 28.8407 101.984 28.7023 101.479 28.6372V28.1855H106.13ZM121.682 43.0537C120.291 44.2826 119.041 44.897 117.935 44.897C117.284 44.897 116.742 44.6854 116.311 44.2622C115.88 43.8309 115.664 43.2938 115.664 42.6509C115.664 41.7801 116.038 40.9989 116.787 40.3071C117.536 39.6073 119.167 38.6795 121.682 37.5239V36.3765C121.682 35.5138 121.633 34.9727 121.536 34.7529C121.446 34.5251 121.271 34.3298 121.011 34.167C120.75 33.9961 120.457 33.9106 120.132 33.9106C119.603 33.9106 119.167 34.0286 118.826 34.2646C118.614 34.4111 118.508 34.582 118.508 34.7773C118.508 34.9482 118.622 35.1598 118.85 35.4121C119.159 35.762 119.314 36.0998 119.314 36.4253C119.314 36.8241 119.163 37.1659 118.862 37.4507C118.569 37.7274 118.183 37.8657 117.703 37.8657C117.19 37.8657 116.759 37.7111 116.409 37.4019C116.067 37.0926 115.896 36.7305 115.896 36.3154C115.896 35.7295 116.128 35.172 116.592 34.6431C117.056 34.106 117.703 33.695 118.533 33.4102C119.363 33.1253 120.225 32.9829 121.121 32.9829C122.203 32.9829 123.057 33.2148 123.684 33.6787C124.319 34.1344 124.73 34.6309 124.917 35.168C125.031 35.5098 125.088 36.2951 125.088 37.5239V41.9551C125.088 42.4759 125.108 42.8055 125.149 42.9438C125.19 43.0741 125.251 43.1717 125.332 43.2368C125.413 43.3019 125.507 43.3345 125.613 43.3345C125.824 43.3345 126.04 43.1839 126.26 42.8828L126.626 43.1758C126.219 43.778 125.796 44.2174 125.356 44.4941C124.925 44.7627 124.433 44.897 123.879 44.897C123.228 44.897 122.72 44.7464 122.354 44.4453C121.987 44.1361 121.764 43.6722 121.682 43.0537ZM121.682 42.1626V38.3418C120.697 38.9196 119.965 39.5381 119.485 40.1973C119.167 40.6367 119.009 41.0802 119.009 41.5278C119.009 41.9022 119.143 42.2318 119.412 42.5166C119.615 42.7363 119.9 42.8462 120.266 42.8462C120.673 42.8462 121.145 42.6183 121.682 42.1626ZM132.62 33.3247V35.9126C133.376 34.7326 134.04 33.9513 134.609 33.5688C135.179 33.1782 135.728 32.9829 136.257 32.9829C136.713 32.9829 137.075 33.1253 137.344 33.4102C137.62 33.6868 137.759 34.0815 137.759 34.5942C137.759 35.1395 137.625 35.5627 137.356 35.8638C137.096 36.1649 136.778 36.3154 136.404 36.3154C135.972 36.3154 135.598 36.1771 135.281 35.9004C134.963 35.6237 134.776 35.4691 134.719 35.4365C134.638 35.3877 134.544 35.3633 134.438 35.3633C134.202 35.3633 133.979 35.4528 133.767 35.6318C133.433 35.9085 133.181 36.3032 133.01 36.8159C132.75 37.6053 132.62 38.4761 132.62 39.4282V42.0527L132.632 42.7363C132.632 43.2002 132.66 43.4972 132.717 43.6274C132.815 43.8472 132.957 44.0099 133.145 44.1157C133.34 44.2134 133.665 44.2744 134.121 44.2988V44.7383H127.957V44.2988C128.453 44.2581 128.787 44.1239 128.958 43.896C129.137 43.66 129.226 43.0456 129.226 42.0527V35.7417C129.226 35.0907 129.194 34.6756 129.128 34.4966C129.047 34.2687 128.929 34.1019 128.774 33.9961C128.62 33.8903 128.347 33.8171 127.957 33.7764V33.3247H132.62ZM143.728 33.3247V34.8262C144.355 34.1426 144.932 33.6665 145.461 33.3979C145.999 33.1213 146.584 32.9829 147.219 32.9829C147.952 32.9829 148.566 33.1538 149.062 33.4956C149.559 33.8374 149.941 34.3582 150.21 35.0581C150.861 34.3257 151.484 33.7967 152.078 33.4712C152.68 33.1457 153.306 32.9829 153.958 32.9829C154.747 32.9829 155.374 33.166 155.837 33.5322C156.309 33.8903 156.635 34.3501 156.814 34.9116C157.001 35.465 157.095 36.3521 157.095 37.5728V42.248C157.095 43.127 157.172 43.6722 157.327 43.8838C157.489 44.0954 157.823 44.2337 158.328 44.2988V44.7383H152.432V44.2988C152.896 44.2581 153.237 44.0791 153.457 43.7617C153.604 43.542 153.677 43.0374 153.677 42.248V37.3408C153.677 36.3236 153.636 35.6766 153.555 35.3999C153.473 35.1232 153.343 34.9198 153.164 34.7896C152.993 34.6512 152.79 34.582 152.554 34.582C152.204 34.582 151.85 34.7122 151.492 34.9727C151.134 35.2249 150.771 35.6074 150.405 36.1201V42.248C150.405 43.07 150.474 43.5868 150.613 43.7983C150.8 44.0994 151.158 44.2663 151.687 44.2988V44.7383H145.779V44.2988C146.096 44.2826 146.344 44.2052 146.523 44.0669C146.711 43.9204 146.833 43.7495 146.89 43.5542C146.955 43.3507 146.987 42.9154 146.987 42.248V37.3408C146.987 36.3073 146.947 35.6603 146.865 35.3999C146.784 35.1395 146.646 34.936 146.45 34.7896C146.263 34.6431 146.06 34.5698 145.84 34.5698C145.514 34.5698 145.217 34.6553 144.949 34.8262C144.566 35.0785 144.159 35.5098 143.728 36.1201V42.248C143.728 43.0537 143.805 43.5868 143.96 43.8472C144.123 44.0994 144.456 44.25 144.961 44.2988V44.7383H139.077V44.2988C139.557 44.25 139.899 44.0954 140.103 43.835C140.241 43.6559 140.31 43.127 140.31 42.248V35.8027C140.31 34.9401 140.229 34.403 140.066 34.1914C139.911 33.9798 139.582 33.8415 139.077 33.7764V33.3247H143.728ZM166.116 43.0537C164.724 44.2826 163.475 44.897 162.368 44.897C161.717 44.897 161.176 44.6854 160.745 44.2622C160.313 43.8309 160.098 43.2938 160.098 42.6509C160.098 41.7801 160.472 40.9989 161.221 40.3071C161.969 39.6073 163.601 38.6795 166.116 37.5239V36.3765C166.116 35.5138 166.067 34.9727 165.969 34.7529C165.88 34.5251 165.705 34.3298 165.444 34.167C165.184 33.9961 164.891 33.9106 164.565 33.9106C164.036 33.9106 163.601 34.0286 163.259 34.2646C163.048 34.4111 162.942 34.582 162.942 34.7773C162.942 34.9482 163.056 35.1598 163.284 35.4121C163.593 35.762 163.748 36.0998 163.748 36.4253C163.748 36.8241 163.597 37.1659 163.296 37.4507C163.003 37.7274 162.616 37.8657 162.136 37.8657C161.624 37.8657 161.192 37.7111 160.842 37.4019C160.5 37.0926 160.33 36.7305 160.33 36.3154C160.33 35.7295 160.562 35.172 161.025 34.6431C161.489 34.106 162.136 33.695 162.966 33.4102C163.796 33.1253 164.659 32.9829 165.554 32.9829C166.637 32.9829 167.491 33.2148 168.118 33.6787C168.752 34.1344 169.163 34.6309 169.351 35.168C169.465 35.5098 169.521 36.2951 169.521 37.5239V41.9551C169.521 42.4759 169.542 42.8055 169.583 42.9438C169.623 43.0741 169.684 43.1717 169.766 43.2368C169.847 43.3019 169.941 43.3345 170.046 43.3345C170.258 43.3345 170.474 43.1839 170.693 42.8828L171.06 43.1758C170.653 43.778 170.229 44.2174 169.79 44.4941C169.359 44.7627 168.866 44.897 168.313 44.897C167.662 44.897 167.153 44.7464 166.787 44.4453C166.421 44.1361 166.197 43.6722 166.116 43.0537ZM166.116 42.1626V38.3418C165.131 38.9196 164.399 39.5381 163.918 40.1973C163.601 40.6367 163.442 41.0802 163.442 41.5278C163.442 41.9022 163.577 42.2318 163.845 42.5166C164.049 42.7363 164.333 42.8462 164.7 42.8462C165.107 42.8462 165.579 42.6183 166.116 42.1626ZM181.631 41.7964L182.009 42.0894C181.472 43.0985 180.801 43.8512 179.995 44.3477C179.198 44.8359 178.347 45.0801 177.444 45.0801C175.922 45.0801 174.705 44.5063 173.794 43.3589C172.882 42.2114 172.427 40.832 172.427 39.2207C172.427 37.6663 172.842 36.2992 173.672 35.1191C174.673 33.695 176.052 32.9829 177.81 32.9829C178.99 32.9829 179.926 33.2799 180.618 33.874C181.318 34.4681 181.667 35.1313 181.667 35.8638C181.667 36.3276 181.525 36.6979 181.24 36.9746C180.964 37.2513 180.597 37.3896 180.142 37.3896C179.661 37.3896 179.263 37.231 178.945 36.9136C178.636 36.5962 178.445 36.0306 178.372 35.2168C178.323 34.7041 178.205 34.346 178.018 34.1426C177.83 33.9391 177.611 33.8374 177.358 33.8374C176.968 33.8374 176.634 34.0449 176.357 34.46C175.934 35.0866 175.723 36.0469 175.723 37.3408C175.723 38.415 175.894 39.4445 176.235 40.4292C176.577 41.4058 177.045 42.1341 177.639 42.6143C178.087 42.9642 178.616 43.1392 179.226 43.1392C179.625 43.1392 180.003 43.0456 180.361 42.8584C180.719 42.6712 181.143 42.3172 181.631 41.7964ZM193.093 38.6226H186.831C186.904 40.1362 187.307 41.3325 188.04 42.2114C188.601 42.8869 189.277 43.2246 190.066 43.2246C190.554 43.2246 190.998 43.0903 191.396 42.8218C191.795 42.5451 192.222 42.0527 192.678 41.3447L193.093 41.6133C192.475 42.8747 191.791 43.7699 191.042 44.2988C190.294 44.8197 189.427 45.0801 188.442 45.0801C186.75 45.0801 185.468 44.429 184.597 43.127C183.897 42.0771 183.547 40.7751 183.547 39.2207C183.547 37.3164 184.06 35.8027 185.085 34.6797C186.119 33.5485 187.327 32.9829 188.711 32.9829C189.867 32.9829 190.868 33.459 191.714 34.4111C192.568 35.3551 193.028 36.759 193.093 38.6226ZM190.09 37.8047C190.09 36.4945 190.017 35.5952 189.871 35.1069C189.732 34.6187 189.513 34.2484 189.211 33.9961C189.041 33.8496 188.813 33.7764 188.528 33.7764C188.105 33.7764 187.759 33.9839 187.49 34.3989C187.01 35.1232 186.77 36.116 186.77 37.3774V37.8047H190.09ZM205.557 33.3247V42.2603C205.557 43.131 205.638 43.6763 205.801 43.896C205.964 44.1076 206.293 44.2419 206.79 44.2988V44.7383H202.139V43.2124C201.593 43.8634 201.048 44.3395 200.503 44.6406C199.958 44.9336 199.347 45.0801 198.672 45.0801C198.029 45.0801 197.455 44.8848 196.951 44.4941C196.454 44.0954 196.121 43.6315 195.95 43.1025C195.779 42.5736 195.693 41.6499 195.693 40.3315V35.8027C195.693 34.9401 195.612 34.403 195.449 34.1914C195.295 33.9798 194.965 33.8415 194.46 33.7764V33.3247H199.111V41.125C199.111 41.9388 199.148 42.4637 199.221 42.6997C199.303 42.9357 199.425 43.1147 199.587 43.2368C199.758 43.3589 199.954 43.4199 200.173 43.4199C200.466 43.4199 200.731 43.3426 200.967 43.188C201.292 42.9764 201.683 42.5492 202.139 41.9062V35.8027C202.139 34.9401 202.057 34.403 201.895 34.1914C201.74 33.9798 201.41 33.8415 200.906 33.7764V33.3247H205.557ZM212.979 29.1499V33.3247H215.688V34.5332H212.979V41.5767C212.979 42.2358 213.007 42.6631 213.064 42.8584C213.129 43.0456 213.239 43.2002 213.394 43.3223C213.548 43.4362 213.691 43.4932 213.821 43.4932C214.35 43.4932 214.85 43.0903 215.322 42.2847L215.688 42.5532C215.029 44.1157 213.959 44.897 212.478 44.897C211.754 44.897 211.139 44.6976 210.635 44.2988C210.138 43.8919 209.821 43.4403 209.683 42.9438C209.601 42.6672 209.561 41.9185 209.561 40.6978V34.5332H208.071V34.106C209.097 33.3817 209.967 32.6208 210.684 31.8232C211.408 31.0257 212.039 30.1346 212.576 29.1499H212.979ZM219.521 27.7949C220.05 27.7949 220.498 27.9821 220.864 28.3564C221.23 28.7227 221.414 29.1662 221.414 29.687C221.414 30.2078 221.226 30.6514 220.852 31.0176C220.486 31.3838 220.042 31.5669 219.521 31.5669C219.001 31.5669 218.557 31.3838 218.191 31.0176C217.825 30.6514 217.642 30.2078 217.642 29.687C217.642 29.1662 217.825 28.7227 218.191 28.3564C218.557 27.9821 219.001 27.7949 219.521 27.7949ZM221.23 33.3247V42.3701C221.23 43.1758 221.324 43.6925 221.511 43.9204C221.698 44.1401 222.065 44.2663 222.61 44.2988V44.7383H216.445V44.2988C216.95 44.2826 217.324 44.1361 217.568 43.8594C217.731 43.6722 217.812 43.1758 217.812 42.3701V35.7051C217.812 34.8994 217.719 34.3867 217.532 34.167C217.345 33.9391 216.982 33.8089 216.445 33.7764V33.3247H221.23ZM233.047 41.7964L233.425 42.0894C232.888 43.0985 232.217 43.8512 231.411 44.3477C230.614 44.8359 229.763 45.0801 228.86 45.0801C227.338 45.0801 226.121 44.5063 225.21 43.3589C224.299 42.2114 223.843 40.832 223.843 39.2207C223.843 37.6663 224.258 36.2992 225.088 35.1191C226.089 33.695 227.468 32.9829 229.226 32.9829C230.406 32.9829 231.342 33.2799 232.034 33.874C232.734 34.4681 233.083 35.1313 233.083 35.8638C233.083 36.3276 232.941 36.6979 232.656 36.9746C232.38 37.2513 232.013 37.3896 231.558 37.3896C231.077 37.3896 230.679 37.231 230.361 36.9136C230.052 36.5962 229.861 36.0306 229.788 35.2168C229.739 34.7041 229.621 34.346 229.434 34.1426C229.246 33.9391 229.027 33.8374 228.774 33.8374C228.384 33.8374 228.05 34.0449 227.773 34.46C227.35 35.0866 227.139 36.0469 227.139 37.3408C227.139 38.415 227.31 39.4445 227.651 40.4292C227.993 41.4058 228.461 42.1341 229.055 42.6143C229.503 42.9642 230.032 43.1392 230.642 43.1392C231.041 43.1392 231.419 43.0456 231.777 42.8584C232.135 42.6712 232.559 42.3172 233.047 41.7964ZM241.14 43.0537C239.749 44.2826 238.499 44.897 237.393 44.897C236.742 44.897 236.2 44.6854 235.769 44.2622C235.338 43.8309 235.122 43.2938 235.122 42.6509C235.122 41.7801 235.496 40.9989 236.245 40.3071C236.994 39.6073 238.625 38.6795 241.14 37.5239V36.3765C241.14 35.5138 241.091 34.9727 240.994 34.7529C240.904 34.5251 240.729 34.3298 240.469 34.167C240.208 33.9961 239.915 33.9106 239.59 33.9106C239.061 33.9106 238.625 34.0286 238.284 34.2646C238.072 34.4111 237.966 34.582 237.966 34.7773C237.966 34.9482 238.08 35.1598 238.308 35.4121C238.617 35.762 238.772 36.0998 238.772 36.4253C238.772 36.8241 238.621 37.1659 238.32 37.4507C238.027 37.7274 237.641 37.8657 237.161 37.8657C236.648 37.8657 236.217 37.7111 235.867 37.4019C235.525 37.0926 235.354 36.7305 235.354 36.3154C235.354 35.7295 235.586 35.172 236.05 34.6431C236.514 34.106 237.161 33.695 237.991 33.4102C238.821 33.1253 239.683 32.9829 240.579 32.9829C241.661 32.9829 242.515 33.2148 243.142 33.6787C243.777 34.1344 244.188 34.6309 244.375 35.168C244.489 35.5098 244.546 36.2951 244.546 37.5239V41.9551C244.546 42.4759 244.566 42.8055 244.607 42.9438C244.648 43.0741 244.709 43.1717 244.79 43.2368C244.871 43.3019 244.965 43.3345 245.071 43.3345C245.282 43.3345 245.498 43.1839 245.718 42.8828L246.084 43.1758C245.677 43.778 245.254 44.2174 244.814 44.4941C244.383 44.7627 243.891 44.897 243.337 44.897C242.686 44.897 242.178 44.7464 241.812 44.4453C241.445 44.1361 241.222 43.6722 241.14 43.0537ZM241.14 42.1626V38.3418C240.155 38.9196 239.423 39.5381 238.943 40.1973C238.625 40.6367 238.467 41.0802 238.467 41.5278C238.467 41.9022 238.601 42.2318 238.87 42.5166C239.073 42.7363 239.358 42.8462 239.724 42.8462C240.131 42.8462 240.603 42.6183 241.14 42.1626ZM251.809 28.1855V42.3701C251.809 43.1758 251.903 43.6925 252.09 43.9204C252.277 44.1401 252.643 44.2663 253.188 44.2988V44.7383H247.024V44.2988C247.528 44.2826 247.903 44.1361 248.147 43.8594C248.31 43.6722 248.391 43.1758 248.391 42.3701V30.5537C248.391 29.7562 248.298 29.2476 248.11 29.0278C247.923 28.8 247.561 28.6698 247.024 28.6372V28.1855H251.809ZM261.514 33.0073L261.697 36.9014H261.282C260.785 35.7458 260.269 34.9564 259.731 34.5332C259.202 34.11 258.674 33.8984 258.145 33.8984C257.811 33.8984 257.526 34.0124 257.29 34.2402C257.054 34.46 256.936 34.7163 256.936 35.0093C256.936 35.229 257.017 35.4406 257.18 35.644C257.441 35.9777 258.169 36.5514 259.365 37.3652C260.562 38.1709 261.347 38.8586 261.721 39.4282C262.104 39.9897 262.295 40.6204 262.295 41.3203C262.295 41.9551 262.136 42.5776 261.819 43.188C261.501 43.7983 261.054 44.2663 260.476 44.5918C259.898 44.9173 259.259 45.0801 258.56 45.0801C258.014 45.0801 257.286 44.9092 256.375 44.5674C256.13 44.4779 255.964 44.4331 255.874 44.4331C255.605 44.4331 255.382 44.6366 255.203 45.0435H254.8L254.604 40.9419H255.02C255.386 42.0161 255.886 42.8218 256.521 43.3589C257.164 43.896 257.77 44.1646 258.34 44.1646C258.73 44.1646 259.048 44.0465 259.292 43.8105C259.544 43.5664 259.67 43.2734 259.67 42.9316C259.67 42.541 259.548 42.2033 259.304 41.9185C259.06 41.6336 258.515 41.2023 257.668 40.6245C256.423 39.7619 255.618 39.1027 255.251 38.647C254.714 37.9797 254.446 37.2432 254.446 36.4375C254.446 35.5586 254.747 34.7651 255.349 34.0571C255.959 33.341 256.838 32.9829 257.986 32.9829C258.604 32.9829 259.202 33.1335 259.78 33.4346C260 33.5566 260.179 33.6177 260.317 33.6177C260.464 33.6177 260.582 33.5892 260.671 33.5322C260.761 33.4671 260.903 33.2922 261.099 33.0073H261.514ZM93.374 50.8071V51.3687C92.5277 51.922 91.9051 52.4632 91.5063 52.9922C90.953 53.7246 90.5216 54.6646 90.2124 55.812C89.8218 57.2362 89.6265 59.2259 89.6265 61.7812C89.6265 64.1901 89.8014 66.0618 90.1514 67.3965C90.5094 68.7311 90.9937 69.8094 91.604 70.6313C92.0272 71.201 92.6172 71.7015 93.374 72.1328V72.7432C91.4128 72.084 89.7485 70.7371 88.3813 68.7026C87.0223 66.6763 86.3428 64.3447 86.3428 61.708C86.3428 59.1038 87.0223 56.8008 88.3813 54.7988C89.7404 52.7887 91.4046 51.4582 93.374 50.8071ZM100.417 60.2432V64.833C100.417 65.7282 100.47 66.2938 100.576 66.5298C100.69 66.7576 100.885 66.9408 101.162 67.0791C101.447 67.2174 101.964 67.2866 102.712 67.2866V67.7383H94.3018V67.2866C95.0667 67.2866 95.5835 67.2174 95.8521 67.0791C96.1287 66.9326 96.32 66.7454 96.4258 66.5176C96.5397 66.2897 96.5967 65.7282 96.5967 64.833V54.0908C96.5967 53.1956 96.5397 52.6341 96.4258 52.4062C96.32 52.1702 96.1287 51.9831 95.8521 51.8447C95.5754 51.7064 95.0586 51.6372 94.3018 51.6372V51.1855H101.516C103.892 51.1855 105.597 51.6087 106.631 52.4551C107.664 53.3014 108.181 54.3594 108.181 55.6289C108.181 56.7031 107.847 57.6227 107.18 58.3877C106.513 59.1527 105.593 59.6735 104.421 59.9502C103.632 60.1455 102.297 60.2432 100.417 60.2432ZM100.417 52.1377V59.291C100.686 59.3073 100.889 59.3154 101.028 59.3154C102.021 59.3154 102.786 59.0225 103.323 58.4365C103.86 57.8424 104.128 56.9269 104.128 55.6899C104.128 54.4611 103.86 53.5618 103.323 52.9922C102.786 52.4225 101.984 52.1377 100.918 52.1377H100.417ZM114.944 68.0801L111.099 59.23C110.635 58.1639 110.273 57.4884 110.012 57.2036C109.825 56.992 109.548 56.8496 109.182 56.7764V56.3247H115.249V56.7764C114.867 56.7764 114.606 56.8455 114.468 56.9839C114.272 57.1629 114.175 57.3745 114.175 57.6187C114.175 57.9198 114.354 58.4854 114.712 59.3154L116.592 63.6001L118.093 59.9014C118.525 58.8434 118.74 58.0947 118.74 57.6553C118.74 57.403 118.647 57.1995 118.459 57.0449C118.28 56.8822 117.959 56.7926 117.495 56.7764V56.3247H121.23V56.7764C120.872 56.8252 120.579 56.9595 120.352 57.1792C120.124 57.3989 119.782 58.0459 119.326 59.1201L115.518 68.0801H114.944ZM126.821 52.1499V56.3247H129.531V57.5332H126.821V64.5767C126.821 65.2358 126.85 65.6631 126.907 65.8584C126.972 66.0456 127.082 66.2002 127.236 66.3223C127.391 66.4362 127.533 66.4932 127.664 66.4932C128.193 66.4932 128.693 66.0903 129.165 65.2847L129.531 65.5532C128.872 67.1157 127.802 67.897 126.321 67.897C125.597 67.897 124.982 67.6976 124.478 67.2988C123.981 66.8919 123.664 66.4403 123.525 65.9438C123.444 65.6672 123.403 64.9185 123.403 63.6978V57.5332H121.914V57.106C122.939 56.3817 123.81 55.6208 124.526 54.8232C125.251 54.0257 125.881 53.1346 126.418 52.1499H126.821ZM130.081 72.7432V72.1816C130.927 71.6201 131.549 71.0749 131.948 70.5459C132.493 69.8135 132.925 68.8776 133.242 67.7383C133.633 66.306 133.828 64.3122 133.828 61.7568C133.828 59.348 133.649 57.4803 133.291 56.1538C132.941 54.8192 132.461 53.7409 131.851 52.9189C131.427 52.3493 130.837 51.8488 130.081 51.4175V50.8071C132.042 51.4663 133.702 52.8132 135.061 54.8477C136.428 56.874 137.112 59.2056 137.112 61.8423C137.112 64.4383 136.428 66.7373 135.061 68.7393C133.702 70.7493 132.042 72.084 130.081 72.7432ZM160.134 61.9277L159.512 67.7383H144.814V67.2866H145.364C145.844 67.2866 146.23 67.2012 146.523 67.0303C146.735 66.9163 146.898 66.721 147.012 66.4443C147.101 66.249 147.146 65.7363 147.146 64.9062V54.0176C147.146 53.1712 147.101 52.6423 147.012 52.4307C146.922 52.2191 146.739 52.036 146.462 51.8813C146.194 51.7186 145.828 51.6372 145.364 51.6372H144.814V51.1855H153.64V51.6372H152.92C152.44 51.6372 152.053 51.7227 151.76 51.8936C151.549 52.0075 151.382 52.2028 151.26 52.4795C151.17 52.6748 151.125 53.1875 151.125 54.0176V64.5645C151.125 65.4108 151.174 65.952 151.272 66.188C151.37 66.4159 151.561 66.5868 151.846 66.7007C152.049 66.7739 152.542 66.8105 153.323 66.8105H154.702C155.581 66.8105 156.313 66.6559 156.899 66.3467C157.485 66.0374 157.99 65.5492 158.413 64.8818C158.844 64.2145 159.251 63.2298 159.634 61.9277H160.134ZM166.396 52.1499V56.3247H169.106V57.5332H166.396V64.5767C166.396 65.2358 166.425 65.6631 166.482 65.8584C166.547 66.0456 166.657 66.2002 166.812 66.3223C166.966 66.4362 167.109 66.4932 167.239 66.4932C167.768 66.4932 168.268 66.0903 168.74 65.2847L169.106 65.5532C168.447 67.1157 167.377 67.897 165.896 67.897C165.172 67.897 164.557 67.6976 164.053 67.2988C163.556 66.8919 163.239 66.4403 163.101 65.9438C163.019 65.6672 162.979 64.9185 162.979 63.6978V57.5332H161.489V57.106C162.515 56.3817 163.385 55.6208 164.102 54.8232C164.826 54.0257 165.457 53.1346 165.994 52.1499H166.396ZM181.289 51.1855V64.3203C181.289 65.2074 181.313 65.7323 181.362 65.895C181.427 66.1636 181.549 66.363 181.729 66.4932C181.916 66.6234 182.237 66.7048 182.693 66.7373V67.1401L177.871 68.0801V66.2734C177.293 66.9733 176.777 67.4494 176.321 67.7017C175.873 67.9539 175.365 68.0801 174.795 68.0801C173.338 68.0801 172.187 67.429 171.34 66.127C170.657 65.069 170.315 63.771 170.315 62.2329C170.315 61.0041 170.527 59.9054 170.95 58.937C171.373 57.9604 171.951 57.224 172.683 56.7275C173.424 56.2311 174.217 55.9829 175.063 55.9829C175.609 55.9829 176.093 56.0887 176.516 56.3003C176.939 56.5119 177.391 56.8822 177.871 57.4111V53.9688C177.871 53.098 177.834 52.5731 177.761 52.394C177.664 52.158 177.517 51.9831 177.322 51.8691C177.126 51.7552 176.76 51.6982 176.223 51.6982V51.1855H181.289ZM177.871 58.9248C177.269 57.7692 176.532 57.1914 175.662 57.1914C175.361 57.1914 175.112 57.2728 174.917 57.4355C174.616 57.6878 174.368 58.1313 174.172 58.7661C173.985 59.4009 173.892 60.3734 173.892 61.6836C173.892 63.124 173.997 64.1901 174.209 64.8818C174.421 65.5736 174.709 66.0741 175.076 66.3833C175.263 66.5379 175.519 66.6152 175.845 66.6152C176.561 66.6152 177.236 66.0537 177.871 64.9307V58.9248ZM186.392 63.9785C186.961 63.9785 187.441 64.1779 187.832 64.5767C188.231 64.9754 188.43 65.4556 188.43 66.0171C188.43 66.5786 188.231 67.0588 187.832 67.4575C187.433 67.8481 186.953 68.0435 186.392 68.0435C185.83 68.0435 185.35 67.8481 184.951 67.4575C184.561 67.0588 184.365 66.5786 184.365 66.0171C184.365 65.4556 184.561 64.9754 184.951 64.5767C185.35 64.1779 185.83 63.9785 186.392 63.9785Z" fill="white"/>
</svg>
