<svg width="569" height="552" viewBox="0 0 569 552" fill="none" xmlns="http://www.w3.org/2000/svg">
<path d="M520.989 23.7831H22.1449V527.939H520.989V23.7831ZM11.0618 0H543.113V551.743H0V0H11.0618Z" fill="#F2F3F3"/>
<path d="M355.061 57.3259L158.581 275.49L361.41 494.545L342.28 494.524L144.908 280.433L140.513 275.596L144.865 270.716L337.609 57.3259H355.061Z" fill="#F2F3F3"/>
<path d="M441.581 57.2825L237.925 275.51L446.189 494.756L434.469 494.671L229.729 278.48L227.075 275.574L229.687 272.646L428.375 57.3037L441.581 57.2825Z" fill="#F2F3F3"/>
<path d="M479.034 57.3249L278.69 275.489L466.231 472.925L463.344 280.008L310.665 281.111L310.623 272.71L467.166 271.606L471.03 271.585L471.094 275.722L473.981 489.325L268.859 280.22L267.628 275.595L270.409 272.604L469.48 57.2825L479.034 57.3249Z" fill="#F2F3F3"/>
<path fill-rule="evenodd" clip-rule="evenodd" d="M315.655 57.4316L108.198 276.402L324.509 494.651L270.962 494.672L61.2754 276.72L266.885 57.4104L315.655 57.4316Z" fill="#F2F3F3"/>
<path d="M397.865 57.3259L199.92 275.511L404.511 494.736H388.778L188.985 279.457L185.461 275.596L188.943 271.671L383.173 57.3684L388.629 57.3259H397.865Z" fill="#F2F3F3"/>
<path d="M277.204 273.92L473.917 59.3839L470.393 59.49L271.896 274.153L269.985 276.211L270.707 279.012L471.837 484.022L469.013 275.723V273.814H467.187L312.725 274.896V278.8L463.344 277.739H465.403L465.446 279.945L468.333 472.841L464.766 474.475L277.225 277.06L275.739 275.49L277.204 273.878V273.92ZM480.521 58.5565L281.62 275.469L464.045 467.495L461.263 282.279L310.644 283.34H308.563V281.112V272.711L308.521 270.483H310.601L467.144 269.359H471.009L473.068 269.316L473.111 271.544L473.153 275.702L476.041 489.305L476.104 494.63L472.495 490.96L267.373 281.855L266.8 280.836L265.568 276.19L265.25 274.938L266.099 274.005L268.881 271.013L466.465 57.3259H481.773L480.478 58.5565H480.521Z" fill="#F2F3F3"/>
<path d="M154.845 271.586L342.79 62.9265H339.817L148.624 274.577L147.753 275.553L148.603 276.487L344.467 488.922H348.862L154.887 279.436L151.299 275.553L154.866 271.586H154.845ZM358.799 61.2292L165.864 275.447L365.105 490.62L368.863 494.672H335.104L141.214 284.379L141.171 284.337L136.776 279.499L133.252 275.638L136.755 271.713L141.108 266.833H141.129L330.369 57.3467H362.323L358.799 61.2504V61.2292Z" fill="#F2F3F3"/>
<path d="M197.309 272.773L389.224 61.25H384.723L191.576 274.386L190.536 275.553L191.576 276.698L390.264 490.789H395.657L197.33 278.268L194.782 275.531L197.287 272.752L197.309 272.773ZM400.477 60.0619L205.037 275.468L407.08 491.977L409.416 494.693H383.555L186.395 282.257L182.871 278.374L180.387 275.659L182.828 272.901L186.31 268.997L378.098 57.3674H402.94L400.456 60.0831L400.477 60.0619Z" fill="#F2F3F3"/>
<path d="M236.077 273.538L435.254 60.1052H429.436L231.576 274.599L230.706 275.575L231.555 276.508L435.53 491.872L439.734 491.914L236.099 277.527L234.23 275.554L236.099 273.559L236.077 273.538ZM443.407 59.2566L241.619 275.49L447.993 492.742L449.416 494.651H430.774L227.903 280.476L227.861 280.433L225.207 277.527L223.444 275.596L225.185 273.623L227.797 270.695H227.818L424.659 57.3259H445.212L443.386 59.2566H443.407Z" fill="#F2F3F3"/>
<rect x="213.03" y="168" width="23" height="23" rx="11.5" fill="#9D0B0F"/>
<rect x="381.03" y="257" width="23" height="23" rx="11.5" fill="#9D0B0F"/>
<rect x="236.03" y="379" width="23" height="23" rx="11.5" fill="#9D0B0F"/>
</svg>
