<svg width="264" height="73" viewBox="0 0 264 73" fill="none" xmlns="http://www.w3.org/2000/svg">
<path d="M68.436 3.1241H2.9089V69.3489H68.436V3.1241ZM1.45306 0H71.3421V72.4757H0V0H1.45306Z" fill="white"/>
<path d="M102.591 3.06885V8.90381H102.139C101.594 7.30876 100.776 6.09619 99.6855 5.26611C98.5951 4.43604 97.4028 4.021 96.1089 4.021C94.8719 4.021 93.8424 4.37093 93.0205 5.0708C92.1986 5.76253 91.6167 6.73096 91.2749 7.97607C90.9331 9.22119 90.7622 10.4989 90.7622 11.8091C90.7622 13.396 90.9494 14.7876 91.3237 15.9839C91.6981 17.1802 92.3003 18.0591 93.1304 18.6206C93.9686 19.1821 94.9614 19.4629 96.1089 19.4629C96.5076 19.4629 96.9146 19.4222 97.3296 19.3408C97.7528 19.2513 98.1841 19.1252 98.6235 18.9624V15.52C98.6235 14.869 98.5788 14.4499 98.4893 14.2627C98.3997 14.0674 98.2126 13.8924 97.9277 13.7378C97.651 13.5832 97.3133 13.5059 96.9146 13.5059H96.4873V13.0542H104.532V13.5059C103.921 13.5465 103.494 13.632 103.25 13.7622C103.014 13.8843 102.831 14.0918 102.701 14.3848C102.627 14.5394 102.591 14.9178 102.591 15.52V18.9624C101.533 19.4344 100.43 19.7884 99.2827 20.0244C98.1434 20.2686 96.9593 20.3906 95.7305 20.3906C94.1598 20.3906 92.8537 20.179 91.812 19.7559C90.7785 19.3245 89.863 18.763 89.0654 18.0713C88.276 17.3714 87.6576 16.5861 87.21 15.7153C86.6403 14.5923 86.3555 13.335 86.3555 11.9434C86.3555 9.45312 87.2303 7.34945 88.98 5.63232C90.7297 3.9152 92.931 3.05664 95.584 3.05664C96.4059 3.05664 97.1465 3.12174 97.8057 3.25195C98.1637 3.31706 98.7415 3.50423 99.5391 3.81348C100.345 4.11458 100.821 4.26514 100.967 4.26514C101.195 4.26514 101.407 4.18376 101.602 4.021C101.797 3.8501 101.976 3.53271 102.139 3.06885H102.591ZM110.11 3.44727V17.6318C110.11 18.4375 110.204 18.9543 110.391 19.1821C110.578 19.4019 110.944 19.528 111.49 19.5605V20H105.325V19.5605C105.83 19.5443 106.204 19.3978 106.448 19.1211C106.611 18.9339 106.692 18.4375 106.692 17.6318V5.81543C106.692 5.0179 106.599 4.50928 106.412 4.28955C106.224 4.06169 105.862 3.93148 105.325 3.89893V3.44727H110.11ZM117.984 8.24463C118.977 8.24463 119.9 8.50098 120.755 9.01367C121.609 9.52637 122.256 10.2547 122.696 11.1987C123.143 12.1427 123.367 13.1763 123.367 14.2993C123.367 15.9188 122.956 17.2738 122.134 18.3643C121.141 19.6826 119.77 20.3418 118.021 20.3418C116.303 20.3418 114.981 19.7396 114.053 18.5352C113.125 17.3307 112.662 15.9351 112.662 14.3481C112.662 12.7124 113.134 11.2882 114.078 10.0757C115.03 8.85498 116.332 8.24463 117.984 8.24463ZM118.033 9.11133C117.618 9.11133 117.26 9.27002 116.958 9.5874C116.666 9.89665 116.47 10.5151 116.373 11.4429C116.283 12.3625 116.238 13.6442 116.238 15.2881C116.238 16.1589 116.295 16.9727 116.409 17.7295C116.499 18.3073 116.69 18.7467 116.983 19.0479C117.276 19.349 117.61 19.4995 117.984 19.4995C118.35 19.4995 118.655 19.3978 118.899 19.1943C119.217 18.9176 119.428 18.5311 119.534 18.0347C119.697 17.2616 119.778 15.6991 119.778 13.3472C119.778 11.9637 119.701 11.0156 119.546 10.5029C119.392 9.9821 119.164 9.60368 118.863 9.36768C118.651 9.19678 118.375 9.11133 118.033 9.11133ZM129.52 3.44727V9.73389C130.48 8.74105 131.53 8.24463 132.669 8.24463C133.45 8.24463 134.187 8.47656 134.878 8.94043C135.57 9.39616 136.111 10.0472 136.502 10.8936C136.893 11.7399 137.088 12.7165 137.088 13.8232C137.088 15.0684 136.84 16.1995 136.343 17.2168C135.847 18.234 135.184 19.0112 134.354 19.5483C133.523 20.0773 132.575 20.3418 131.509 20.3418C130.891 20.3418 130.341 20.2441 129.861 20.0488C129.381 19.8535 128.909 19.5361 128.445 19.0967L126.553 20.3296H126.138V5.81543C126.138 5.15625 126.11 4.74935 126.053 4.59473C125.971 4.36686 125.841 4.20003 125.662 4.09424C125.491 3.98031 125.198 3.9152 124.783 3.89893V3.44727H129.52ZM129.52 10.8203V15.8984C129.52 16.932 129.544 17.5911 129.593 17.876C129.674 18.3561 129.869 18.7467 130.179 19.0479C130.488 19.3408 130.883 19.4873 131.363 19.4873C131.778 19.4873 132.132 19.3693 132.425 19.1333C132.726 18.8973 132.974 18.4294 133.169 17.7295C133.373 17.0296 133.475 15.7682 133.475 13.9453C133.475 12.1956 133.255 10.9953 132.815 10.3442C132.498 9.87223 132.071 9.63623 131.534 9.63623C130.834 9.63623 130.162 10.0309 129.52 10.8203ZM145.315 18.3154C143.924 19.5443 142.675 20.1587 141.568 20.1587C140.917 20.1587 140.376 19.9471 139.944 19.5239C139.513 19.0926 139.297 18.5555 139.297 17.9126C139.297 17.0418 139.672 16.2606 140.42 15.5688C141.169 14.869 142.801 13.9412 145.315 12.7856V11.6382C145.315 10.7756 145.267 10.2344 145.169 10.0146C145.079 9.78678 144.904 9.59147 144.644 9.42871C144.384 9.25781 144.091 9.17236 143.765 9.17236C143.236 9.17236 142.801 9.29036 142.459 9.52637C142.247 9.67285 142.142 9.84375 142.142 10.0391C142.142 10.21 142.256 10.4215 142.483 10.6738C142.793 11.0238 142.947 11.3615 142.947 11.687C142.947 12.0858 142.797 12.4276 142.496 12.7124C142.203 12.9891 141.816 13.1274 141.336 13.1274C140.823 13.1274 140.392 12.9728 140.042 12.6636C139.7 12.3543 139.529 11.9922 139.529 11.5771C139.529 10.9912 139.761 10.4338 140.225 9.90479C140.689 9.36768 141.336 8.95671 142.166 8.67188C142.996 8.38704 143.859 8.24463 144.754 8.24463C145.836 8.24463 146.691 8.47656 147.317 8.94043C147.952 9.39616 148.363 9.89258 148.55 10.4297C148.664 10.7715 148.721 11.5568 148.721 12.7856V17.2168C148.721 17.7376 148.742 18.0672 148.782 18.2056C148.823 18.3358 148.884 18.4334 148.965 18.4985C149.047 18.5636 149.14 18.5962 149.246 18.5962C149.458 18.5962 149.673 18.4456 149.893 18.1445L150.259 18.4375C149.852 19.0397 149.429 19.4792 148.99 19.7559C148.558 20.0244 148.066 20.1587 147.513 20.1587C146.862 20.1587 146.353 20.0081 145.987 19.707C145.621 19.3978 145.397 18.9339 145.315 18.3154ZM145.315 17.4243V13.6035C144.331 14.1813 143.598 14.7998 143.118 15.459C142.801 15.8984 142.642 16.342 142.642 16.7896C142.642 17.1639 142.776 17.4935 143.045 17.7783C143.248 17.998 143.533 18.1079 143.899 18.1079C144.306 18.1079 144.778 17.88 145.315 17.4243ZM155.984 3.44727V17.6318C155.984 18.4375 156.078 18.9543 156.265 19.1821C156.452 19.4019 156.819 19.528 157.364 19.5605V20H151.199V19.5605C151.704 19.5443 152.078 19.3978 152.322 19.1211C152.485 18.9339 152.566 18.4375 152.566 17.6318V5.81543C152.566 5.0179 152.473 4.50928 152.286 4.28955C152.098 4.06169 151.736 3.93148 151.199 3.89893V3.44727H155.984ZM92.0928 35.5049V40.0947C92.0928 40.9899 92.1457 41.5555 92.2515 41.7915C92.3654 42.0194 92.5607 42.2025 92.8374 42.3408C93.1222 42.4792 93.639 42.5483 94.3877 42.5483V43H85.9771V42.5483C86.742 42.5483 87.2588 42.4792 87.5273 42.3408C87.804 42.1943 87.9953 42.0072 88.1011 41.7793C88.215 41.5514 88.272 40.9899 88.272 40.0947V29.3525C88.272 28.4574 88.215 27.8958 88.1011 27.668C87.9953 27.432 87.804 27.2448 87.5273 27.1064C87.2507 26.9681 86.7339 26.8989 85.9771 26.8989V26.4473H93.1914C95.5677 26.4473 97.2726 26.8704 98.3062 27.7168C99.3397 28.5632 99.8564 29.6211 99.8564 30.8906C99.8564 31.9648 99.5228 32.8844 98.8555 33.6494C98.1882 34.4144 97.2686 34.9352 96.0967 35.2119C95.3073 35.4072 93.9727 35.5049 92.0928 35.5049ZM92.0928 27.3994V34.5527C92.3613 34.569 92.5648 34.5771 92.7031 34.5771C93.696 34.5771 94.4609 34.2842 94.998 33.6982C95.5352 33.1042 95.8037 32.1886 95.8037 30.9517C95.8037 29.7228 95.5352 28.8236 94.998 28.2539C94.4609 27.6842 93.6593 27.3994 92.5933 27.3994H92.0928ZM106.131 26.4473V33.0513C106.757 32.3921 107.331 31.9282 107.852 31.6597C108.373 31.383 108.914 31.2446 109.476 31.2446C110.192 31.2446 110.802 31.4481 111.307 31.855C111.819 32.2619 112.157 32.742 112.32 33.2954C112.491 33.8407 112.576 34.7643 112.576 36.0664V40.522C112.576 41.3927 112.658 41.938 112.82 42.1577C112.983 42.3693 113.313 42.5036 113.809 42.5605V43H108.023V42.5605C108.43 42.5036 108.735 42.3408 108.938 42.0723C109.085 41.8607 109.158 41.3439 109.158 40.522V35.4316C109.158 34.4876 109.122 33.8976 109.048 33.6616C108.975 33.4175 108.849 33.2303 108.67 33.1001C108.499 32.9618 108.304 32.8926 108.084 32.8926C107.758 32.8926 107.441 33.0065 107.132 33.2344C106.823 33.4541 106.489 33.8447 106.131 34.4062V40.522C106.131 41.3358 106.192 41.8444 106.314 42.0479C106.469 42.3245 106.786 42.4954 107.266 42.5605V43H101.48V42.5605C101.96 42.5117 102.302 42.3571 102.505 42.0967C102.644 41.9176 102.713 41.3927 102.713 40.522V28.9253C102.713 28.0627 102.632 27.5256 102.469 27.314C102.314 27.1024 101.985 26.964 101.48 26.8989V26.4473H106.131ZM121.683 41.3154C120.291 42.5443 119.042 43.1587 117.935 43.1587C117.284 43.1587 116.743 42.9471 116.312 42.5239C115.88 42.0926 115.665 41.5555 115.665 40.9126C115.665 40.0418 116.039 39.2606 116.788 38.5688C117.536 37.869 119.168 36.9412 121.683 35.7856V34.6382C121.683 33.7756 121.634 33.2344 121.536 33.0146C121.447 32.7868 121.272 32.5915 121.011 32.4287C120.751 32.2578 120.458 32.1724 120.132 32.1724C119.603 32.1724 119.168 32.2904 118.826 32.5264C118.615 32.6729 118.509 32.8438 118.509 33.0391C118.509 33.21 118.623 33.4215 118.851 33.6738C119.16 34.0238 119.314 34.3615 119.314 34.687C119.314 35.0858 119.164 35.4276 118.863 35.7124C118.57 35.9891 118.183 36.1274 117.703 36.1274C117.19 36.1274 116.759 35.9728 116.409 35.6636C116.067 35.3543 115.896 34.9922 115.896 34.5771C115.896 33.9912 116.128 33.4338 116.592 32.9048C117.056 32.3677 117.703 31.9567 118.533 31.6719C119.363 31.387 120.226 31.2446 121.121 31.2446C122.203 31.2446 123.058 31.4766 123.685 31.9404C124.319 32.3962 124.73 32.8926 124.917 33.4297C125.031 33.7715 125.088 34.5568 125.088 35.7856V40.2168C125.088 40.7376 125.109 41.0672 125.149 41.2056C125.19 41.3358 125.251 41.4334 125.333 41.4985C125.414 41.5636 125.507 41.5962 125.613 41.5962C125.825 41.5962 126.041 41.4456 126.26 41.1445L126.626 41.4375C126.22 42.0397 125.796 42.4792 125.357 42.7559C124.926 43.0244 124.433 43.1587 123.88 43.1587C123.229 43.1587 122.72 43.0081 122.354 42.707C121.988 42.3978 121.764 41.9339 121.683 41.3154ZM121.683 40.4243V36.6035C120.698 37.1813 119.965 37.7998 119.485 38.459C119.168 38.8984 119.009 39.342 119.009 39.7896C119.009 40.1639 119.144 40.4935 119.412 40.7783C119.616 40.998 119.9 41.1079 120.267 41.1079C120.674 41.1079 121.146 40.88 121.683 40.4243ZM132.62 31.5864V34.1743C133.377 32.9943 134.04 32.2131 134.61 31.8306C135.18 31.4399 135.729 31.2446 136.258 31.2446C136.714 31.2446 137.076 31.387 137.344 31.6719C137.621 31.9486 137.759 32.3433 137.759 32.856C137.759 33.4012 137.625 33.8244 137.356 34.1255C137.096 34.4266 136.779 34.5771 136.404 34.5771C135.973 34.5771 135.599 34.4388 135.281 34.1621C134.964 33.8854 134.777 33.7308 134.72 33.6982C134.638 33.6494 134.545 33.625 134.439 33.625C134.203 33.625 133.979 33.7145 133.768 33.8936C133.434 34.1702 133.182 34.5649 133.011 35.0776C132.75 35.867 132.62 36.7378 132.62 37.6899V40.3145L132.632 40.998C132.632 41.4619 132.661 41.759 132.718 41.8892C132.815 42.1089 132.958 42.2716 133.145 42.3774C133.34 42.4751 133.666 42.5361 134.122 42.5605V43H127.957V42.5605C128.453 42.5199 128.787 42.3856 128.958 42.1577C129.137 41.9217 129.227 41.3073 129.227 40.3145V34.0034C129.227 33.3524 129.194 32.9373 129.129 32.7583C129.048 32.5304 128.93 32.3636 128.775 32.2578C128.62 32.152 128.348 32.0788 127.957 32.0381V31.5864H132.62ZM143.729 31.5864V33.0879C144.355 32.4043 144.933 31.9282 145.462 31.6597C145.999 31.383 146.585 31.2446 147.22 31.2446C147.952 31.2446 148.567 31.4155 149.063 31.7573C149.559 32.0991 149.942 32.62 150.21 33.3198C150.861 32.5874 151.484 32.0584 152.078 31.7329C152.68 31.4074 153.307 31.2446 153.958 31.2446C154.747 31.2446 155.374 31.4277 155.838 31.7939C156.31 32.152 156.635 32.6118 156.814 33.1733C157.002 33.7267 157.095 34.6138 157.095 35.8345V40.5098C157.095 41.3887 157.173 41.9339 157.327 42.1455C157.49 42.3571 157.824 42.4954 158.328 42.5605V43H152.432V42.5605C152.896 42.5199 153.238 42.3408 153.458 42.0234C153.604 41.8037 153.677 41.2992 153.677 40.5098V35.6025C153.677 34.5853 153.637 33.9383 153.555 33.6616C153.474 33.3849 153.344 33.1815 153.165 33.0513C152.994 32.9129 152.79 32.8438 152.554 32.8438C152.204 32.8438 151.85 32.974 151.492 33.2344C151.134 33.4867 150.772 33.8691 150.406 34.3818V40.5098C150.406 41.3317 150.475 41.8485 150.613 42.0601C150.8 42.3612 151.159 42.528 151.688 42.5605V43H145.779V42.5605C146.097 42.5443 146.345 42.467 146.524 42.3286C146.711 42.1821 146.833 42.0112 146.89 41.8159C146.955 41.6125 146.988 41.1771 146.988 40.5098V35.6025C146.988 34.569 146.947 33.922 146.866 33.6616C146.784 33.4012 146.646 33.1978 146.451 33.0513C146.264 32.9048 146.06 32.8315 145.84 32.8315C145.515 32.8315 145.218 32.917 144.949 33.0879C144.567 33.3402 144.16 33.7715 143.729 34.3818V40.5098C143.729 41.3154 143.806 41.8485 143.96 42.1089C144.123 42.3612 144.457 42.5117 144.961 42.5605V43H139.078V42.5605C139.558 42.5117 139.9 42.3571 140.103 42.0967C140.241 41.9176 140.311 41.3887 140.311 40.5098V34.0645C140.311 33.2018 140.229 32.6647 140.066 32.4531C139.912 32.2415 139.582 32.1032 139.078 32.0381V31.5864H143.729ZM166.116 41.3154C164.725 42.5443 163.475 43.1587 162.369 43.1587C161.718 43.1587 161.176 42.9471 160.745 42.5239C160.314 42.0926 160.098 41.5555 160.098 40.9126C160.098 40.0418 160.472 39.2606 161.221 38.5688C161.97 37.869 163.602 36.9412 166.116 35.7856V34.6382C166.116 33.7756 166.067 33.2344 165.97 33.0146C165.88 32.7868 165.705 32.5915 165.445 32.4287C165.184 32.2578 164.891 32.1724 164.566 32.1724C164.037 32.1724 163.602 32.2904 163.26 32.5264C163.048 32.6729 162.942 32.8438 162.942 33.0391C162.942 33.21 163.056 33.4215 163.284 33.6738C163.593 34.0238 163.748 34.3615 163.748 34.687C163.748 35.0858 163.597 35.4276 163.296 35.7124C163.003 35.9891 162.617 36.1274 162.137 36.1274C161.624 36.1274 161.193 35.9728 160.843 35.6636C160.501 35.3543 160.33 34.9922 160.33 34.5771C160.33 33.9912 160.562 33.4338 161.026 32.9048C161.49 32.3677 162.137 31.9567 162.967 31.6719C163.797 31.387 164.66 31.2446 165.555 31.2446C166.637 31.2446 167.492 31.4766 168.118 31.9404C168.753 32.3962 169.164 32.8926 169.351 33.4297C169.465 33.7715 169.522 34.5568 169.522 35.7856V40.2168C169.522 40.7376 169.542 41.0672 169.583 41.2056C169.624 41.3358 169.685 41.4334 169.766 41.4985C169.847 41.5636 169.941 41.5962 170.047 41.5962C170.258 41.5962 170.474 41.4456 170.694 41.1445L171.06 41.4375C170.653 42.0397 170.23 42.4792 169.791 42.7559C169.359 43.0244 168.867 43.1587 168.313 43.1587C167.662 43.1587 167.154 43.0081 166.788 42.707C166.421 42.3978 166.198 41.9339 166.116 41.3154ZM166.116 40.4243V36.6035C165.132 37.1813 164.399 37.7998 163.919 38.459C163.602 38.8984 163.443 39.342 163.443 39.7896C163.443 40.1639 163.577 40.4935 163.846 40.7783C164.049 40.998 164.334 41.1079 164.7 41.1079C165.107 41.1079 165.579 40.88 166.116 40.4243ZM181.631 40.0581L182.01 40.3511C181.473 41.3602 180.801 42.113 179.996 42.6094C179.198 43.0977 178.348 43.3418 177.444 43.3418C175.923 43.3418 174.706 42.7681 173.794 41.6206C172.883 40.4731 172.427 39.0938 172.427 37.4824C172.427 35.9281 172.842 34.5609 173.672 33.3809C174.673 31.9567 176.053 31.2446 177.811 31.2446C178.991 31.2446 179.926 31.5417 180.618 32.1357C181.318 32.7298 181.668 33.3931 181.668 34.1255C181.668 34.5894 181.526 34.9596 181.241 35.2363C180.964 35.513 180.598 35.6514 180.142 35.6514C179.662 35.6514 179.263 35.4927 178.946 35.1753C178.637 34.8579 178.445 34.2923 178.372 33.4785C178.323 32.9658 178.205 32.6077 178.018 32.4043C177.831 32.2008 177.611 32.0991 177.359 32.0991C176.968 32.0991 176.635 32.3066 176.358 32.7217C175.935 33.3483 175.723 34.3086 175.723 35.6025C175.723 36.6768 175.894 37.7062 176.236 38.6909C176.578 39.6675 177.046 40.3958 177.64 40.876C178.087 41.2259 178.616 41.4009 179.227 41.4009C179.625 41.4009 180.004 41.3073 180.362 41.1201C180.72 40.9329 181.143 40.5789 181.631 40.0581ZM193.094 36.8843H186.832C186.905 38.3979 187.308 39.5942 188.04 40.4731C188.602 41.1486 189.277 41.4863 190.066 41.4863C190.555 41.4863 190.998 41.3521 191.397 41.0835C191.796 40.8068 192.223 40.3145 192.679 39.6064L193.094 39.875C192.475 41.1364 191.792 42.0316 191.043 42.5605C190.294 43.0814 189.428 43.3418 188.443 43.3418C186.75 43.3418 185.468 42.6908 184.598 41.3887C183.898 40.3389 183.548 39.0368 183.548 37.4824C183.548 35.5781 184.061 34.0645 185.086 32.9414C186.119 31.8102 187.328 31.2446 188.711 31.2446C189.867 31.2446 190.868 31.7207 191.714 32.6729C192.569 33.6169 193.029 35.0207 193.094 36.8843ZM190.091 36.0664C190.091 34.7562 190.018 33.8569 189.871 33.3687C189.733 32.8804 189.513 32.5101 189.212 32.2578C189.041 32.1113 188.813 32.0381 188.528 32.0381C188.105 32.0381 187.759 32.2456 187.491 32.6606C187.011 33.3849 186.771 34.3778 186.771 35.6392V36.0664H190.091ZM205.557 31.5864V40.522C205.557 41.3927 205.639 41.938 205.801 42.1577C205.964 42.3693 206.294 42.5036 206.79 42.5605V43H202.139V41.4741C201.594 42.1252 201.049 42.6012 200.503 42.9023C199.958 43.1953 199.348 43.3418 198.672 43.3418C198.029 43.3418 197.456 43.1465 196.951 42.7559C196.455 42.3571 196.121 41.8932 195.95 41.3643C195.779 40.8353 195.694 39.9116 195.694 38.5933V34.0645C195.694 33.2018 195.612 32.6647 195.45 32.4531C195.295 32.2415 194.965 32.1032 194.461 32.0381V31.5864H199.112V39.3867C199.112 40.2005 199.148 40.7254 199.222 40.9614C199.303 41.1974 199.425 41.3765 199.588 41.4985C199.759 41.6206 199.954 41.6816 200.174 41.6816C200.467 41.6816 200.731 41.6043 200.967 41.4497C201.293 41.2381 201.683 40.8109 202.139 40.168V34.0645C202.139 33.2018 202.058 32.6647 201.895 32.4531C201.74 32.2415 201.411 32.1032 200.906 32.0381V31.5864H205.557ZM212.979 27.4116V31.5864H215.689V32.7949H212.979V39.8384C212.979 40.4976 213.007 40.9248 213.064 41.1201C213.13 41.3073 213.239 41.4619 213.394 41.584C213.549 41.6979 213.691 41.7549 213.821 41.7549C214.35 41.7549 214.851 41.3521 215.323 40.5464L215.689 40.8149C215.03 42.3774 213.96 43.1587 212.479 43.1587C211.754 43.1587 211.14 42.9593 210.635 42.5605C210.139 42.1536 209.821 41.702 209.683 41.2056C209.602 40.9289 209.561 40.1802 209.561 38.9595V32.7949H208.072V32.3677C209.097 31.6434 209.968 30.8825 210.684 30.085C211.408 29.2874 212.039 28.3963 212.576 27.4116H212.979ZM219.522 26.0566C220.051 26.0566 220.499 26.2438 220.865 26.6182C221.231 26.9844 221.414 27.4279 221.414 27.9487C221.414 28.4696 221.227 28.9131 220.853 29.2793C220.486 29.6455 220.043 29.8286 219.522 29.8286C219.001 29.8286 218.558 29.6455 218.191 29.2793C217.825 28.9131 217.642 28.4696 217.642 27.9487C217.642 27.4279 217.825 26.9844 218.191 26.6182C218.558 26.2438 219.001 26.0566 219.522 26.0566ZM221.231 31.5864V40.6318C221.231 41.4375 221.325 41.9543 221.512 42.1821C221.699 42.4019 222.065 42.528 222.61 42.5605V43H216.446V42.5605C216.95 42.5443 217.325 42.3978 217.569 42.1211C217.732 41.9339 217.813 41.4375 217.813 40.6318V33.9668C217.813 33.1611 217.719 32.6484 217.532 32.4287C217.345 32.2008 216.983 32.0706 216.446 32.0381V31.5864H221.231ZM233.047 40.0581L233.426 40.3511C232.889 41.3602 232.217 42.113 231.412 42.6094C230.614 43.0977 229.764 43.3418 228.86 43.3418C227.339 43.3418 226.122 42.7681 225.21 41.6206C224.299 40.4731 223.843 39.0938 223.843 37.4824C223.843 35.9281 224.258 34.5609 225.088 33.3809C226.089 31.9567 227.469 31.2446 229.227 31.2446C230.407 31.2446 231.342 31.5417 232.034 32.1357C232.734 32.7298 233.084 33.3931 233.084 34.1255C233.084 34.5894 232.942 34.9596 232.657 35.2363C232.38 35.513 232.014 35.6514 231.558 35.6514C231.078 35.6514 230.679 35.4927 230.362 35.1753C230.053 34.8579 229.861 34.2923 229.788 33.4785C229.739 32.9658 229.621 32.6077 229.434 32.4043C229.247 32.2008 229.027 32.0991 228.775 32.0991C228.384 32.0991 228.051 32.3066 227.774 32.7217C227.351 33.3483 227.139 34.3086 227.139 35.6025C227.139 36.6768 227.31 37.7062 227.652 38.6909C227.994 39.6675 228.462 40.3958 229.056 40.876C229.503 41.2259 230.032 41.4009 230.643 41.4009C231.041 41.4009 231.42 41.3073 231.778 41.1201C232.136 40.9329 232.559 40.5789 233.047 40.0581ZM241.141 41.3154C239.749 42.5443 238.5 43.1587 237.393 43.1587C236.742 43.1587 236.201 42.9471 235.77 42.5239C235.338 42.0926 235.123 41.5555 235.123 40.9126C235.123 40.0418 235.497 39.2606 236.246 38.5688C236.994 37.869 238.626 36.9412 241.141 35.7856V34.6382C241.141 33.7756 241.092 33.2344 240.994 33.0146C240.905 32.7868 240.73 32.5915 240.469 32.4287C240.209 32.2578 239.916 32.1724 239.59 32.1724C239.061 32.1724 238.626 32.2904 238.284 32.5264C238.073 32.6729 237.967 32.8438 237.967 33.0391C237.967 33.21 238.081 33.4215 238.309 33.6738C238.618 34.0238 238.772 34.3615 238.772 34.687C238.772 35.0858 238.622 35.4276 238.321 35.7124C238.028 35.9891 237.641 36.1274 237.161 36.1274C236.648 36.1274 236.217 35.9728 235.867 35.6636C235.525 35.3543 235.354 34.9922 235.354 34.5771C235.354 33.9912 235.586 33.4338 236.05 32.9048C236.514 32.3677 237.161 31.9567 237.991 31.6719C238.821 31.387 239.684 31.2446 240.579 31.2446C241.661 31.2446 242.516 31.4766 243.143 31.9404C243.777 32.3962 244.188 32.8926 244.375 33.4297C244.489 33.7715 244.546 34.5568 244.546 35.7856V40.2168C244.546 40.7376 244.567 41.0672 244.607 41.2056C244.648 41.3358 244.709 41.4334 244.791 41.4985C244.872 41.5636 244.965 41.5962 245.071 41.5962C245.283 41.5962 245.499 41.4456 245.718 41.1445L246.084 41.4375C245.678 42.0397 245.254 42.4792 244.815 42.7559C244.384 43.0244 243.891 43.1587 243.338 43.1587C242.687 43.1587 242.178 43.0081 241.812 42.707C241.446 42.3978 241.222 41.9339 241.141 41.3154ZM241.141 40.4243V36.6035C240.156 37.1813 239.424 37.7998 238.943 38.459C238.626 38.8984 238.467 39.342 238.467 39.7896C238.467 40.1639 238.602 40.4935 238.87 40.7783C239.074 40.998 239.358 41.1079 239.725 41.1079C240.132 41.1079 240.604 40.88 241.141 40.4243ZM251.81 26.4473V40.6318C251.81 41.4375 251.903 41.9543 252.09 42.1821C252.278 42.4019 252.644 42.528 253.189 42.5605V43H247.024V42.5605C247.529 42.5443 247.903 42.3978 248.147 42.1211C248.31 41.9339 248.392 41.4375 248.392 40.6318V28.8154C248.392 28.0179 248.298 27.5093 248.111 27.2896C247.924 27.0617 247.562 26.9315 247.024 26.8989V26.4473H251.81ZM261.514 31.269L261.697 35.1631H261.282C260.786 34.0075 260.269 33.2181 259.732 32.7949C259.203 32.3717 258.674 32.1602 258.145 32.1602C257.811 32.1602 257.527 32.2741 257.291 32.502C257.055 32.7217 256.937 32.978 256.937 33.271C256.937 33.4907 257.018 33.7023 257.181 33.9058C257.441 34.2394 258.169 34.8132 259.366 35.627C260.562 36.4326 261.347 37.1203 261.722 37.6899C262.104 38.2515 262.295 38.8822 262.295 39.582C262.295 40.2168 262.137 40.8394 261.819 41.4497C261.502 42.0601 261.054 42.528 260.477 42.8535C259.899 43.179 259.26 43.3418 258.56 43.3418C258.015 43.3418 257.286 43.1709 256.375 42.8291C256.131 42.7396 255.964 42.6948 255.875 42.6948C255.606 42.6948 255.382 42.8983 255.203 43.3052H254.8L254.605 39.2036H255.02C255.386 40.2778 255.887 41.0835 256.521 41.6206C257.164 42.1577 257.771 42.4263 258.34 42.4263C258.731 42.4263 259.048 42.3083 259.292 42.0723C259.545 41.8281 259.671 41.5352 259.671 41.1934C259.671 40.8027 259.549 40.465 259.305 40.1802C259.061 39.8953 258.515 39.464 257.669 38.8862C256.424 38.0236 255.618 37.3644 255.252 36.9087C254.715 36.2414 254.446 35.5049 254.446 34.6992C254.446 33.8203 254.747 33.0269 255.35 32.3188C255.96 31.6027 256.839 31.2446 257.986 31.2446C258.605 31.2446 259.203 31.3952 259.781 31.6963C260 31.8184 260.18 31.8794 260.318 31.8794C260.464 31.8794 260.582 31.8509 260.672 31.7939C260.761 31.7288 260.904 31.5539 261.099 31.269H261.514ZM93.3745 49.0688V49.6304C92.5282 50.1838 91.9056 50.7249 91.5068 51.2539C90.9535 51.9863 90.5221 52.9263 90.2129 54.0737C89.8223 55.4979 89.627 57.4876 89.627 60.043C89.627 62.4518 89.8019 64.3236 90.1519 65.6582C90.5099 66.9928 90.9941 68.0711 91.6045 68.8931C92.0277 69.4627 92.6177 69.9632 93.3745 70.3945V71.0049C91.4132 70.3457 89.749 68.9989 88.3818 66.9644C87.0228 64.938 86.3433 62.6064 86.3433 59.9697C86.3433 57.3656 87.0228 55.0625 88.3818 53.0605C89.7409 51.0505 91.4051 49.7199 93.3745 49.0688ZM100.418 58.5049V63.0947C100.418 63.9899 100.471 64.5555 100.577 64.7915C100.691 65.0194 100.886 65.2025 101.163 65.3408C101.447 65.4792 101.964 65.5483 102.713 65.5483V66H94.3022V65.5483C95.0672 65.5483 95.584 65.4792 95.8525 65.3408C96.1292 65.1943 96.3205 65.0072 96.4263 64.7793C96.5402 64.5514 96.5972 63.9899 96.5972 63.0947V52.3525C96.5972 51.4574 96.5402 50.8958 96.4263 50.668C96.3205 50.432 96.1292 50.2448 95.8525 50.1064C95.5758 49.9681 95.0591 49.8989 94.3022 49.8989V49.4473H101.517C103.893 49.4473 105.598 49.8704 106.631 50.7168C107.665 51.5632 108.182 52.6211 108.182 53.8906C108.182 54.9648 107.848 55.8844 107.181 56.6494C106.513 57.4144 105.594 57.9352 104.422 58.2119C103.632 58.4072 102.298 58.5049 100.418 58.5049ZM100.418 50.3994V57.5527C100.687 57.569 100.89 57.5771 101.028 57.5771C102.021 57.5771 102.786 57.2842 103.323 56.6982C103.86 56.1042 104.129 55.1886 104.129 53.9517C104.129 52.7228 103.86 51.8236 103.323 51.2539C102.786 50.6842 101.985 50.3994 100.918 50.3994H100.418ZM114.944 66.3418L111.099 57.4917C110.635 56.4256 110.273 55.7502 110.013 55.4653C109.826 55.2537 109.549 55.1113 109.183 55.0381V54.5864H115.25V55.0381C114.867 55.0381 114.607 55.1073 114.468 55.2456C114.273 55.4246 114.175 55.6362 114.175 55.8804C114.175 56.1815 114.354 56.7471 114.712 57.5771L116.592 61.8618L118.094 58.1631C118.525 57.1051 118.741 56.3564 118.741 55.917C118.741 55.6647 118.647 55.4613 118.46 55.3066C118.281 55.1439 117.959 55.0544 117.496 55.0381V54.5864H121.231V55.0381C120.873 55.0869 120.58 55.2212 120.352 55.4409C120.124 55.6606 119.782 56.3076 119.327 57.3818L115.518 66.3418H114.944ZM126.822 50.4116V54.5864H129.532V55.7949H126.822V62.8384C126.822 63.4976 126.85 63.9248 126.907 64.1201C126.972 64.3073 127.082 64.4619 127.237 64.584C127.391 64.6979 127.534 64.7549 127.664 64.7549C128.193 64.7549 128.694 64.3521 129.166 63.5464L129.532 63.8149C128.873 65.3774 127.802 66.1587 126.321 66.1587C125.597 66.1587 124.983 65.9593 124.478 65.5605C123.982 65.1536 123.664 64.702 123.526 64.2056C123.444 63.9289 123.404 63.1802 123.404 61.9595V55.7949H121.915V55.3677C122.94 54.6434 123.811 53.8825 124.527 53.085C125.251 52.2874 125.882 51.3963 126.419 50.4116H126.822ZM130.081 71.0049V70.4434C130.927 69.8818 131.55 69.3366 131.949 68.8076C132.494 68.0752 132.925 67.1393 133.243 66C133.633 64.5677 133.829 62.5739 133.829 60.0186C133.829 57.6097 133.65 55.742 133.292 54.4155C132.942 53.0809 132.461 52.0026 131.851 51.1807C131.428 50.611 130.838 50.1105 130.081 49.6792V49.0688C132.042 49.728 133.702 51.0749 135.062 53.1094C136.429 55.1357 137.112 57.4673 137.112 60.104C137.112 62.7 136.429 64.999 135.062 67.001C133.702 69.0111 132.042 70.3457 130.081 71.0049ZM160.135 60.1895L159.512 66H144.815V65.5483H145.364C145.844 65.5483 146.231 65.4629 146.524 65.292C146.736 65.1781 146.898 64.9827 147.012 64.7061C147.102 64.5107 147.146 63.998 147.146 63.168V52.2793C147.146 51.4329 147.102 50.904 147.012 50.6924C146.923 50.4808 146.74 50.2977 146.463 50.1431C146.194 49.9803 145.828 49.8989 145.364 49.8989H144.815V49.4473H153.641V49.8989H152.92C152.44 49.8989 152.054 49.9844 151.761 50.1553C151.549 50.2692 151.382 50.4645 151.26 50.7412C151.171 50.9365 151.126 51.4492 151.126 52.2793V62.8262C151.126 63.6725 151.175 64.2137 151.272 64.4497C151.37 64.6776 151.561 64.8485 151.846 64.9624C152.05 65.0356 152.542 65.0723 153.323 65.0723H154.703C155.582 65.0723 156.314 64.9176 156.9 64.6084C157.486 64.2992 157.99 63.8109 158.414 63.1436C158.845 62.4762 159.252 61.4915 159.634 60.1895H160.135ZM166.397 50.4116V54.5864H169.107V55.7949H166.397V62.8384C166.397 63.4976 166.425 63.9248 166.482 64.1201C166.548 64.3073 166.657 64.4619 166.812 64.584C166.967 64.6979 167.109 64.7549 167.239 64.7549C167.768 64.7549 168.269 64.3521 168.741 63.5464L169.107 63.8149C168.448 65.3774 167.378 66.1587 165.896 66.1587C165.172 66.1587 164.558 65.9593 164.053 65.5605C163.557 65.1536 163.239 64.702 163.101 64.2056C163.02 63.9289 162.979 63.1802 162.979 61.9595V55.7949H161.49V55.3677C162.515 54.6434 163.386 53.8825 164.102 53.085C164.826 52.2874 165.457 51.3963 165.994 50.4116H166.397ZM181.29 49.4473V62.582C181.29 63.4691 181.314 63.994 181.363 64.1567C181.428 64.4253 181.55 64.6247 181.729 64.7549C181.916 64.8851 182.238 64.9665 182.693 64.999V65.4019L177.872 66.3418V64.5352C177.294 65.235 176.777 65.7111 176.321 65.9634C175.874 66.2157 175.365 66.3418 174.795 66.3418C173.339 66.3418 172.187 65.6908 171.341 64.3887C170.657 63.3307 170.315 62.0327 170.315 60.4946C170.315 59.2658 170.527 58.1672 170.95 57.1987C171.373 56.2222 171.951 55.4857 172.684 54.9893C173.424 54.4928 174.218 54.2446 175.064 54.2446C175.609 54.2446 176.093 54.3504 176.517 54.562C176.94 54.7736 177.391 55.1439 177.872 55.6729V52.2305C177.872 51.3597 177.835 50.8348 177.762 50.6558C177.664 50.4198 177.518 50.2448 177.322 50.1309C177.127 50.0169 176.761 49.96 176.224 49.96V49.4473H181.29ZM177.872 57.1865C177.269 56.0309 176.533 55.4531 175.662 55.4531C175.361 55.4531 175.113 55.5345 174.917 55.6973C174.616 55.9495 174.368 56.3931 174.173 57.0278C173.986 57.6626 173.892 58.6351 173.892 59.9453C173.892 61.3857 173.998 62.4518 174.209 63.1436C174.421 63.8353 174.71 64.3358 175.076 64.645C175.263 64.7996 175.52 64.877 175.845 64.877C176.561 64.877 177.237 64.3154 177.872 63.1924V57.1865ZM186.392 62.2402C186.962 62.2402 187.442 62.4396 187.833 62.8384C188.231 63.2371 188.431 63.7173 188.431 64.2788C188.431 64.8403 188.231 65.3205 187.833 65.7192C187.434 66.1099 186.954 66.3052 186.392 66.3052C185.831 66.3052 185.35 66.1099 184.952 65.7192C184.561 65.3205 184.366 64.8403 184.366 64.2788C184.366 63.7173 184.561 63.2371 184.952 62.8384C185.35 62.4396 185.831 62.2402 186.392 62.2402Z" fill="white"/>
<path d="M46.6397 6.69531L20.8305 32.1741L47.4736 57.757L44.9607 57.7545L19.0343 32.7514L18.457 32.1865L19.0288 31.6166L44.3471 6.69531H46.6397Z" fill="white"/>
<path d="M58.0052 6.68945L31.2533 32.1757L58.6104 57.7808L57.0709 57.7709L30.1767 32.5226L29.8281 32.1831L30.1712 31.8412L56.2704 6.69193L58.0052 6.68945Z" fill="white"/>
<path d="M62.9251 6.69441L36.6083 32.1732L61.2434 55.2312L60.8641 32.701L40.8085 32.8298L40.803 31.8486L61.3661 31.7198L61.8737 31.7173L61.8821 32.2005L62.2614 57.1465L35.317 32.7257L35.1553 32.1856L35.5206 31.8362L61.6701 6.68945L62.9251 6.69441Z" fill="white"/>
<path fill-rule="evenodd" clip-rule="evenodd" d="M41.4636 6.70658L14.2125 32.2795L42.6266 57.7682L35.5928 57.7707L8.04883 32.3167L35.0573 6.7041L41.4636 6.70658Z" fill="white"/>
<path d="M52.2623 6.69531L26.2606 32.1766L53.1352 57.7793H51.0686L24.8243 32.6374L24.3613 32.1865L24.8187 31.7281L50.3323 6.70027L51.0491 6.69531H52.2623Z" fill="white"/>
<path d="M36.413 31.9907L62.2529 6.93565L61.7899 6.94804L35.7157 32.018L35.4647 32.2583L35.5595 32.5854L61.9795 56.528L61.6086 32.2014V31.9784H61.3688L41.0789 32.1047V32.5606L60.8639 32.4367H61.1345L61.1401 32.6944L61.5194 55.2222L61.0508 55.413L36.4158 32.3575L36.2205 32.1741L36.413 31.9858V31.9907ZM63.1202 6.83902L36.9931 32.1716L60.956 54.5978L60.5906 32.967L40.8056 33.0909H40.5323V32.8307V31.8495L40.5267 31.5893H40.8L61.3632 31.458H61.8708L62.1413 31.4531L62.1469 31.7132L62.1525 32.1989L62.5318 57.1449L62.5401 57.7669L62.066 57.3382L35.1217 32.9174L35.0464 32.7985L34.8846 32.2559L34.8428 32.1097L34.9543 32.0007L35.3197 31.6513L61.2739 6.69531H63.2848L63.1146 6.83902H63.1202Z" fill="white"/>
<path d="M20.3403 31.7177L45.0283 7.34892H44.6379L19.5231 32.067L19.4088 32.181L19.5203 32.29L45.2487 57.0998H45.826L20.3459 32.6344L19.8745 32.181L20.3431 31.7177H20.3403ZM47.1312 7.1507L21.7878 32.1686L47.9596 57.298L48.4532 57.7713H44.0187L18.5498 33.2118L18.5442 33.2068L17.9669 32.6419L17.5039 32.1909L17.9641 31.7325L18.5358 31.1627H18.5386L43.3968 6.69727H47.5942L47.1312 7.15317V7.1507Z" fill="white"/>
<path d="M25.9181 31.8569L51.1277 7.15363H50.5364L25.1651 32.0452L25.0284 32.1815L25.1651 32.3153L51.2644 57.3183H51.9728L25.9209 32.4986L25.5862 32.179L25.9153 31.8544L25.9181 31.8569ZM52.6059 7.01487L26.9333 32.1716L53.4732 57.4571L53.78 57.7742H50.383L24.4846 32.9644L24.0216 32.511L23.6953 32.1939L24.016 31.8717L24.4734 31.4158L49.6663 6.7002H52.9294L52.6031 7.01735L52.6059 7.01487Z" fill="white"/>
<path d="M31.011 31.9461L57.1744 7.0199H56.4102L30.4197 32.07L30.3054 32.184L30.417 32.293L57.2107 57.4448L57.7629 57.4497L31.0138 32.412L30.7684 32.1815L31.0138 31.9486L31.011 31.9461ZM58.2454 6.92079L31.7389 32.1741L58.8478 57.5463L59.0347 57.7693H56.5859L29.9372 32.7564L29.9317 32.7514L29.583 32.412L29.3516 32.1865L29.5803 31.9561L29.9233 31.6141H29.9261L55.7827 6.69531H58.4824L58.2426 6.92079H58.2454Z" fill="white"/>
</svg>
